<svg xmlns="http://www.w3.org/2000/svg" height="106.81" width="131.135"><defs><clipPath id="a"><path d="M0 85.448h104.908V0H0v85.448z"/></clipPath></defs><g clip-path="url(#a)" transform="matrix(1.25 0 0 -1.25 0 106.81)" fill="#ccc"><path d="M18.729 71.548a4.834 4.834 0 0 1-4.83-4.828 4.835 4.835 0 0 1 4.83-4.83 4.835 4.835 0 0 1 4.828 4.83 4.834 4.834 0 0 1-4.828 4.828m0-14.046c-5.083 0-9.218 4.135-9.218 9.218 0 5.082 4.135 9.218 9.218 9.218s9.218-4.136 9.218-9.218c0-5.083-4.135-9.218-9.218-9.218"/><path d="M18.729 81.058c-7.907 0-14.34-6.433-14.34-14.339 0-7.906 6.433-14.339 14.34-14.339 7.906 0 14.338 6.433 14.338 14.34 0 7.905-6.433 14.338-14.339 14.338m0-33.067C8.401 47.991 0 56.392 0 66.72c0 10.327 8.402 18.728 18.73 18.728 10.326 0 18.727-8.4 18.727-18.728 0-10.327-8.4-18.728-18.728-18.728"/><path d="M47.745 0c-17.21 0-31.211 14-31.211 31.21v19.123h4.389V31.21c0-14.79 12.032-26.821 26.822-26.821s26.82 12.032 26.82 26.82v17.785h4.39V31.21C78.956 14 64.955 0 47.746 0"/><path d="M47.745 0c-17.21 0-31.211 14-31.211 31.21v19.123h4.389V31.21c0-14.79 12.032-26.821 26.822-26.821s26.82 12.032 26.82 26.82v17.785h4.39V31.21C78.956 14 64.955 0 47.746 0"/><path d="M76.669 45.599c-11.537 0-20.923 9.386-20.923 20.923v2.392h4.389v-2.392c0-9.116 7.417-16.533 16.534-16.533 9.117 0 16.534 7.417 16.534 16.533v2.392h4.389v-2.392c0-11.537-9.386-20.923-20.923-20.923"/><path d="M58.233 80.912a5.126 5.126 0 0 1-5.12-5.121 5.126 5.126 0 0 1 5.12-5.121 5.126 5.126 0 0 1 5.121 5.12 5.126 5.126 0 0 1-5.12 5.122m0-14.631c-5.245 0-9.512 4.266-9.512 9.51s4.267 9.51 9.511 9.51c5.244 0 9.51-4.266 9.51-9.51s-4.266-9.51-9.51-9.51m37.164 14.631a5.126 5.126 0 0 1-5.121-5.121 5.126 5.126 0 0 1 5.121-5.121 5.126 5.126 0 0 1 5.121 5.12 5.126 5.126 0 0 1-5.121 5.122m0-14.631c-5.244 0-9.51 4.266-9.51 9.51s4.266 9.51 9.51 9.51 9.511-4.266 9.511-9.51-4.267-9.51-9.511-9.51"/></g></svg>