<svg xmlns="http://www.w3.org/2000/svg" viewBox="0 0 512 512"><path d="M435.238 392.533c-30.26 0-55.319 22.623-59.196 51.84-50.425 3.865-87.746-6.125-110.931-29.8-24.227-24.733-26.75-58.598-26.575-73.35 54.802-1.11 104.65-13.436 141.071-35.042 41.977-24.9 64.164-59.958 64.164-101.383 0-2.902.019-5.946.035-9.106.24-40.7.598-102.208-35.996-132.919-12.902-10.823-30.742-20.019-53.067-27.388C346.578 26.973 318.813 0 298.705 0c-23.527 0-42.667 19.14-42.667 42.667s19.14 42.667 42.667 42.667c18.371 0 43.117-22.502 53.488-32.806 18.927 6.496 33.923 14.321 44.648 23.321 30.452 25.554 30.121 82.236 29.902 119.744-.019 3.196-.038 6.273-.038 9.206 0 70.339-80.708 119.467-196.267 119.467-115.558 0-196.267-49.127-196.267-119.467 0-2.933-.019-6.01-.037-9.206-.219-37.508-.55-94.189 29.902-119.744 10.721-8.996 25.715-16.825 44.644-23.325 10.369 10.304 35.119 32.81 53.492 32.81 23.527 0 42.667-19.14 42.667-42.667S185.699 0 162.171 0c-20.106 0-47.865 26.965-56.035 35.381-22.329 7.371-40.171 16.569-53.071 27.392-36.594 30.71-36.236 92.219-35.996 132.919.017 3.16.035 6.204.035 9.106 0 41.425 22.188 76.483 64.165 101.383 36.219 21.485 85.712 33.8 140.154 35.029-.256 17.567 2.844 55.94 31.356 85.165 23.294 23.875 57.858 35.904 102.996 35.904 6.585 0 13.408-.269 20.444-.781C380.672 490.067 405.44 512 435.238 512c32.938 0 59.733-26.796 59.733-59.733.001-32.938-26.795-59.734-59.733-59.734zM298.705 68.267c-14.117 0-25.6-11.483-25.6-25.6s11.483-25.6 25.6-25.6c8.731 0 25.642 12.86 38.202 24.717a8.56 8.56 0 0 0 .227 1.565c-12.573 11.909-29.623 24.918-38.429 24.918zm-136.534-51.2c14.117 0 25.6 11.483 25.6 25.6s-11.483 25.6-25.6 25.6c-8.95 0-26.504-13.513-39.148-25.604 12.632-12.088 30.176-25.596 39.148-25.596zm273.067 477.866c-23.527 0-42.667-19.14-42.667-42.667s19.14-42.667 42.667-42.667 42.667 19.14 42.667 42.667c0 23.528-19.14 42.667-42.667 42.667z"/></svg>